<?xml version="1.0" encoding="UTF-8" standalone="no"?>
<!-- Generator: Adobe Illustrator 21.0.0, SVG Export Plug-In . SVG Version: 6.00 Build 0)  -->

<svg
   xmlns:dc="http://purl.org/dc/elements/1.1/"
   xmlns:cc="http://creativecommons.org/ns#"
   xmlns:rdf="http://www.w3.org/1999/02/22-rdf-syntax-ns#"
   xmlns:svg="http://www.w3.org/2000/svg"
   xmlns="http://www.w3.org/2000/svg"
   xmlns:sodipodi="http://sodipodi.sourceforge.net/DTD/sodipodi-0.dtd"
   xmlns:inkscape="http://www.inkscape.org/namespaces/inkscape"
   version="1.1"
   id="Capa_1"
   x="0px"
   y="0px"
   viewBox="0 0 64 64"
   xml:space="preserve"
   width="64"
   height="64"
   inkscape:version="0.91 r13725"
   sodipodi:docname="005-strong.svg"><metadata
     id="metadata3932"><rdf:RDF><cc:Work
         rdf:about=""><dc:format>image/svg+xml</dc:format><dc:type
           rdf:resource="http://purl.org/dc/dcmitype/StillImage" /><dc:title></dc:title></cc:Work></rdf:RDF></metadata><defs
     id="defs3930" /><sodipodi:namedview
     pagecolor="#ffffff"
     bordercolor="#666666"
     borderopacity="1"
     objecttolerance="10"
     gridtolerance="10"
     guidetolerance="10"
     inkscape:pageopacity="0"
     inkscape:pageshadow="2"
     inkscape:window-width="1366"
     inkscape:window-height="701"
     id="namedview3928"
     showgrid="false"
     inkscape:zoom="2.6074563"
     inkscape:cx="16.997994"
     inkscape:cy="46.943376"
     inkscape:window-x="-8"
     inkscape:window-y="-8"
     inkscape:window-maximized="1"
     inkscape:current-layer="Capa_1" /><path
     style="fill:#f4623a;fill-opacity:1"
     d="M 13.125 0 C 12.627625 0 12.150328 0.19720312 11.798828 0.54882812 L 0.54882812 11.798828 C 0.19707812 12.150453 0 12.62775 0 13.125 L 0 62.125 C 0 63.1605 0.8395 64 1.875 64 L 62.125 64 C 63.1605 64 64 63.1605 64 62.125 L 64 35.75 C 64 34.7145 63.1605 33.875 62.125 33.875 L 51.509766 33.875 C 46.079391 33.875 41.053828 36.727375 38.267578 41.375 L 22.214844 41.375 L 19.085938 22.5 L 31.875 22.5 C 32.9105 22.5 33.75 21.6605 33.75 20.625 L 33.75 1.875 C 33.75 0.8395 32.9105 0 31.875 0 L 13.125 0 z M 13.902344 3.75 L 30 3.75 L 30 11.25 L 26.25 11.25 L 26.25 9.375 C 26.25 8.3395 25.4105 7.5 24.375 7.5 C 23.3395 7.5 22.5 8.3395 22.5 9.375 L 22.5 13.125 C 22.5 14.1605 23.3395 15 24.375 15 L 30 15 L 30 18.75 L 16.875 18.75 C 16.324125 18.75 15.801564 18.991984 15.445312 19.412109 C 15.089063 19.832234 14.935266 20.388266 15.025391 20.931641 L 18.414062 41.375 L 18.568359 42.595703 L 18.365234 43.464844 L 17.591797 45.125 L 15.197266 49.912109 C 14.734141 50.838359 15.110856 51.964484 16.037109 52.427734 C 16.965109 52.891734 18.090484 52.512274 18.552734 51.587891 L 21.783203 45.125 L 37.5 45.125 L 37.5 47 C 37.5 48.0355 38.3395 48.875 39.375 48.875 C 40.4105 48.875 41.25 48.0355 41.25 47 L 41.25 43.708984 C 43.303 39.944609 47.195266 37.625 51.509766 37.625 L 60.25 37.625 L 60.25 60.25 L 3.75 60.25 L 3.75 45.125 L 3.75 41.375 L 3.75 13.902344 L 13.902344 3.75 z M 46.875 22.625 C 45.8395 22.625 45 23.4645 45 24.5 L 45 28.25 C 45 29.2855 45.8395 30.125 46.875 30.125 C 47.9105 30.125 48.75 29.2855 48.75 28.25 L 48.75 24.5 C 48.75 23.4645 47.9105 22.625 46.875 22.625 z M 37.630859 25.140625 C 37.270635 25.115184 36.898781 25.194516 36.5625 25.388672 C 35.665625 25.906422 35.359078 27.052469 35.876953 27.949219 L 37.751953 31.197266 C 38.271328 32.096891 39.41825 32.399062 40.3125 31.882812 C 41.209375 31.365063 41.515922 30.219016 40.998047 29.322266 L 39.123047 26.074219 C 38.799375 25.513672 38.231234 25.183026 37.630859 25.140625 z M 30.505859 32.003906 C 29.905471 32.046313 29.337266 32.376953 29.013672 32.9375 C 28.495797 33.834375 28.802469 34.980422 29.699219 35.498047 L 32.947266 37.373047 C 33.840141 37.888672 34.987812 37.588125 35.507812 36.6875 C 36.025687 35.790625 35.719016 34.644578 34.822266 34.126953 L 31.574219 32.251953 C 31.237844 32.05775 30.866092 31.978462 30.505859 32.003906 z "
     id="path3920" /></svg>