<?xml version="1.0" encoding="UTF-8" standalone="no"?>
<!-- Generator: Adobe Illustrator 19.0.0, SVG Export Plug-In . SVG Version: 6.00 Build 0)  -->

<svg
   xmlns:dc="http://purl.org/dc/elements/1.1/"
   xmlns:cc="http://creativecommons.org/ns#"
   xmlns:rdf="http://www.w3.org/1999/02/22-rdf-syntax-ns#"
   xmlns:svg="http://www.w3.org/2000/svg"
   xmlns="http://www.w3.org/2000/svg"
   xmlns:sodipodi="http://sodipodi.sourceforge.net/DTD/sodipodi-0.dtd"
   xmlns:inkscape="http://www.inkscape.org/namespaces/inkscape"
   version="1.1"
   id="Capa_1"
   x="0px"
   y="0px"
   viewBox="0 0 64 64"
   xml:space="preserve"
   inkscape:version="0.91 r13725"
   sodipodi:docname="2.svg"
   width="64"
   height="64"><metadata
     id="metadata4833"><rdf:RDF><cc:Work
         rdf:about=""><dc:format>image/svg+xml</dc:format><dc:type
           rdf:resource="http://purl.org/dc/dcmitype/StillImage" /><dc:title></dc:title></cc:Work></rdf:RDF></metadata><defs
     id="defs4831" /><sodipodi:namedview
     pagecolor="#ffffff"
     bordercolor="#666666"
     borderopacity="1"
     objecttolerance="10"
     gridtolerance="10"
     guidetolerance="10"
     inkscape:pageopacity="0"
     inkscape:pageshadow="2"
     inkscape:window-width="1366"
     inkscape:window-height="701"
     id="namedview4829"
     showgrid="false"
     inkscape:zoom="3.6875"
     inkscape:cx="-4.206599"
     inkscape:cy="43.9964"
     inkscape:window-x="-8"
     inkscape:window-y="-8"
     inkscape:window-maximized="1"
     inkscape:current-layer="Capa_1" /><path
     inkscape:connector-curvature="0"
     d="m 62.309482,36.812497 -6.852731,-13.981039 0,-5.90428 c 0,-4.660915 -3.745455,-8.5317864 -8.531787,-8.5317864 -1.754988,0 -3.387546,0.532383 -4.745237,1.444573 -1.167575,-3.322277 -4.336423,-5.7104673 -8.052585,-5.7104673 -3.716161,0 -6.885009,2.3881903 -8.052442,5.7104673 -1.357691,-0.91219 -2.990249,-1.444573 -4.745237,-1.444573 -3.716588,0 -6.883872,2.3897534 -8.05102,5.7125994 -1.374613,-0.920864 -3.016982,-1.446706 -4.7466599,-1.446706 -4.704427,0 -8.5317864006126,3.827359 -8.5317864006126,8.531786 l 0,21.613859 c 0,4.704427 3.8273594006126,8.531786 8.5317864006126,8.531786 2.5454589,0 4.8342529,-1.12065 6.3988399,-2.894266 1.564588,1.773758 3.853381,2.894266 6.39884,2.894266 1.590183,0 3.079264,-0.438533 4.35505,-1.199142 -0.102381,0.717239 -0.116316,1.451257 -0.03327,2.185275 0.241023,2.12996 1.326409,4.076629 3.056371,5.481246 1.639525,1.331243 3.713317,2.064408 5.839439,2.064408 l 12.879158,0 c 6.354332,0 12.177703,-3.415985 14.835639,-8.702707 2.30088,-4.57645 2.318086,-9.808568 0.04764,-14.355299 z M 27.728303,34.275144 c -1.177956,0 -2.132947,0.954991 -2.132947,2.132946 l 0,6.39884 c 0,2.352214 -1.91368,4.265893 -4.265893,4.265893 -2.352214,0 -4.265893,-1.913679 -4.265893,-4.265893 l 0,-6.39884 c 0,-1.177955 -0.954992,-2.132946 -2.132947,-2.132946 -1.177955,0 -2.132947,0.954991 -2.132947,2.132946 l 0,6.39884 c 0,2.352214 -1.913679,4.265893 -4.2658929,4.265893 -2.3522135,0 -4.2658932,-1.913679 -4.2658932,-4.265893 l 0,-21.613859 c 0,-2.352213 1.9136797,-4.265893 4.2658932,-4.265893 0.00626,0 0.012656,0 0.018912,0 2.0425099,0.009 3.7727559,1.481402 4.1157339,3.494904 l 0.131247,0.770989 c 0,1.177955 0.954992,2.132947 2.132947,2.132947 1.177955,0 2.132947,-0.954992 2.132947,-2.132947 l 0,-4.265893 c 0,-2.352214 1.913679,-4.265893 4.265893,-4.265893 2.352213,0 4.265893,1.913679 4.265893,4.265893 0,1.177955 0.954991,2.132947 2.132947,2.132947 1.177955,0 2.132946,-0.954992 2.132946,-2.132947 l 0,-4.265893 c 0,-2.352214 1.91368,-4.2658934 4.265893,-4.2658934 2.352214,0 4.265894,1.9136794 4.265894,4.2658934 l 0,4.265893 c 0,1.177955 0.954991,2.132947 2.132946,2.132947 1.177956,0 2.132947,-0.954992 2.132947,-2.132947 0,-2.352214 1.91368,-4.265893 4.265893,-4.265893 2.38307,0 4.265893,1.923918 4.265893,4.265893 l 0,25.879752 c 0,2.352214 -1.913679,4.265893 -4.265893,4.265893 -2.352213,0 -4.265893,-1.913679 -4.265893,-4.265893 l 0,-6.39884 c 0,-1.177955 -0.954991,-2.132946 -2.132947,-2.132946 -1.177955,0 -2.132946,0.954991 -2.132946,2.132946 l 0,6.39884 c 0,2.352214 -1.91368,4.265893 -4.265894,4.265893 -2.352213,0 -4.265893,-1.913679 -4.265893,-4.265893 l 0,-6.39884 c 0,-1.177955 -0.954991,-2.132946 -2.132946,-2.132946 z M 58.450555,49.251557 C 56.51,53.110911 52.18282,55.60461 47.426207,55.60461 l -12.879158,0 c -2.372975,0 -4.41847,-1.651328 -4.656934,-3.75939 -0.06129,-0.541768 -0.02432,-1.073583 0.105083,-1.577385 1.225165,0.681263 2.633621,1.070739 4.132087,1.070739 2.546454,0 4.834252,-1.122783 6.398839,-2.897537 1.564588,1.774754 3.852386,2.897537 6.39884,2.897537 4.704427,0 8.531787,-3.827359 8.531787,-8.531786 l 0,-10.283078 3.026224,6.174169 c 0.0026,0.005 0.0048,0.0101 0.0075,0.01507 1.666258,3.3328 1.651611,7.173953 -0.03996,10.538605 z"
     id="path4767"
     style="fill:#f4623a;fill-opacity:1" /><g
     id="g4799"
     transform="translate(0,-448)" /><g
     id="g4801"
     transform="translate(0,-448)" /><g
     id="g4803"
     transform="translate(0,-448)" /><g
     id="g4805"
     transform="translate(0,-448)" /><g
     id="g4807"
     transform="translate(0,-448)" /><g
     id="g4809"
     transform="translate(0,-448)" /><g
     id="g4811"
     transform="translate(0,-448)" /><g
     id="g4813"
     transform="translate(0,-448)" /><g
     id="g4815"
     transform="translate(0,-448)" /><g
     id="g4817"
     transform="translate(0,-448)" /><g
     id="g4819"
     transform="translate(0,-448)" /><g
     id="g4821"
     transform="translate(0,-448)" /><g
     id="g4823"
     transform="translate(0,-448)" /><g
     id="g4825"
     transform="translate(0,-448)" /><g
     id="g4827"
     transform="translate(0,-448)" /></svg>