<?xml version="1.0" encoding="UTF-8" standalone="no"?>
<svg
   xmlns:dc="http://purl.org/dc/elements/1.1/"
   xmlns:cc="http://creativecommons.org/ns#"
   xmlns:rdf="http://www.w3.org/1999/02/22-rdf-syntax-ns#"
   xmlns:svg="http://www.w3.org/2000/svg"
   xmlns="http://www.w3.org/2000/svg"
   xmlns:sodipodi="http://sodipodi.sourceforge.net/DTD/sodipodi-0.dtd"
   xmlns:inkscape="http://www.inkscape.org/namespaces/inkscape"
   height="64"
   viewBox="0 -16 54.628802 51.2"
   width="68.286003"
   id="svg5439"
   version="1.1"
   inkscape:version="0.91 r13725"
   sodipodi:docname="collaboration.svg">
  <metadata
     id="metadata5447">
    <rdf:RDF>
      <cc:Work
         rdf:about="">
        <dc:format>image/svg+xml</dc:format>
        <dc:type
           rdf:resource="http://purl.org/dc/dcmitype/StillImage" />
        <dc:title></dc:title>
      </cc:Work>
    </rdf:RDF>
  </metadata>
  <defs
     id="defs5445" />
  <sodipodi:namedview
     pagecolor="#ffffff"
     bordercolor="#666666"
     borderopacity="1"
     objecttolerance="10"
     gridtolerance="10"
     guidetolerance="10"
     inkscape:pageopacity="0"
     inkscape:pageshadow="2"
     inkscape:window-width="1366"
     inkscape:window-height="701"
     id="namedview5443"
     showgrid="false"
     units="px"
     inkscape:zoom="5.9"
     inkscape:cx="34.58137"
     inkscape:cy="31.766894"
     inkscape:window-x="-8"
     inkscape:window-y="-8"
     inkscape:window-maximized="1"
     inkscape:current-layer="svg5439" />
  <path
     d="m 54.159913,18.753515 -7.439608,-7.43961 0.155044,-0.15504 c 1.804261,-1.8038495 1.804678,-4.7392595 0.0025,-6.5443595 -0.0021,-0.002 -0.0042,-0.004 -0.0063,-0.006 -0.445959,-0.44554 -0.96694,-0.78897 -1.534185,-1.0182 0.49139,-1.24285 0.598086,-3.34636001 -1.033625,-4.97808 -0.0042,-0.004 -0.0083,-0.008 -0.01292,-0.0129 -0.443876,-0.44096 -0.961523,-0.78105 -1.525016,-1.00903 0.490555,-1.24078 0.597669,-3.34595 -1.032376,-4.97684 -0.0013,-8.3e-4 -0.0021,-0.002 -0.0029,-0.003 -0.446375,-0.44638 -0.967774,-0.79022 -1.535852,-1.02028 0.21131,-0.53558 0.322175,-1.11115 0.322175,-1.7042405 0,-1.2366 -0.481803,-2.39902 -1.3558,-3.27343 -4.17e-4,-4.2e-4 -4.17e-4,-8.4e-4 -8.34e-4,-8.4e-4 -4.17e-4,-4.1e-4 -8.33e-4,-8.3e-4 -0.0012,-0.001 -1.805095,-1.80509 -4.742177,-1.80509 -6.547272,0 l -0.154627,0.15505 -2.296901,-2.2969 c -0.486805,-0.48722 -1.231599,-0.60767 -1.84719,-0.30009 l -5.857909,2.92917 c -1.793425,-1.41123 -4.427921,-1.32454 -6.122151,0.36385 -0.0029,0.002 -0.0054,0.005 -0.0083,0.008 -0.38761,0.38761 -1.616708,1.76467 -1.308704,3.9336105 -0.776471,0.19882 -1.511262,0.60059 -2.117684,1.20701 -4.16e-4,8.3e-4 -0.0013,10e-4 -0.0017,0.002 0,4.1e-4 0,4.1e-4 -4.16e-4,4.1e-4 -1.629629,1.62964 -1.527517,3.72564 -1.03196,4.97809 -0.564326,0.22798 -1.082807,0.56807 -1.527099,1.00944 -0.0042,0.004 -0.0083,0.008 -0.0125,0.0125 -1.6292108,1.62962999 -1.5270986,3.72563 -1.0319583,4.97808 -0.567244,0.22923 -1.0886417,0.57183 -1.5346014,1.01737 -0.00292,0.002 -0.00542,0.005 -0.00792,0.008 -1.804678,1.80844 -1.8063452,4.73385 0.00333,6.5435295 l 0.1550439,0.15504 -7.43960781,7.43961 c -0.62517712,0.62518 -0.62517712,1.63838 0,2.26356 0.62476041,0.62518 1.63838081,0.62476 2.26314131,0 l 7.8338853,-7.83388 c 1.184503,0.35093 3.09171,0.33676 4.593801,-1.16533 0.0025,-0.002 0.0054,-0.005 0.0079,-0.008 0.791891,-0.79439 1.25869,-1.82594 1.336629,-2.9341695 1.111148,-0.0784 2.145608,-0.54765 2.940832,-1.34288 4.17e-4,-4.2e-4 8.34e-4,-8.3e-4 0.0013,-10e-4 4.17e-4,-4.2e-4 4.17e-4,-4.2e-4 8.33e-4,-8.3e-4 0.796059,-0.79607 1.264942,-1.83136 1.342881,-2.94333 1.071137,-0.0763 2.120601,-0.52141 2.937916,-1.33789 0.0029,-0.003 0.0054,-0.005 0.0079,-0.008 0.816064,-0.81773 1.260774,-1.86678 1.337462,-2.93750001 1.110732,-0.0779 2.144774,-0.54598 2.940833,-1.34079 0.0025,-0.002 0.005,-0.005 0.0071,-0.007 1.498342,-1.50083999 1.51418,-3.40221999 1.162413,-4.59046999 l 5.692029,-5.6920305 c 0.556825,-0.55682 1.463332,-0.55682 2.020156,0 8.33e-4,8.3e-4 0.0012,10e-4 0.0021,0.002 0.558075,0.55808 0.558492,1.4616605 0,2.0201605 l -3.818999,3.819 c -0.625177,0.62518 -0.625177,1.63837 0,2.26355 0.624761,0.62477 1.637964,0.62519 2.263141,0 l 2.111015,-2.1106 c 0.558075,-0.55181 1.456663,-0.55098 2.013487,0.005 0.0013,0.001 0.0025,0.002 0.0038,0.004 0.556824,0.55766 0.557241,1.46082 -0.0013,2.01932 l -3.00085,3.00084999 c -0.62476,0.62518 -0.62476,1.63838001 0,2.26356001 0.625177,0.62518 1.638381,0.62476 2.263558,0 l 1.286615,-1.28662001 c 0.558074,-0.55807 1.461664,-0.5589 2.020155,0 0.0029,0.003 0.0058,0.005 0.0088,0.008 0.55099,0.55808001 0.550156,1.45707001 -0.0067,2.01390001 l -3.000851,3.00085 c -0.62476,0.62476 -0.625176,1.63839 0,2.26356 0.624762,0.62476 1.638382,0.62476 2.263558,0 l 1.2912,-1.29162 c 0.558492,-0.55307 1.458329,-0.55223 2.015571,0.005 4.17e-4,0 8.34e-4,4.2e-4 8.34e-4,8.4e-4 4.16e-4,0 8.33e-4,4.2e-4 0.0012,8.3e-4 0.556825,0.55725 0.556825,1.46334 0,2.02058 L 33.749574,19.759295 c -1.260774,1.26077 -2.937083,1.95514 -4.720504,1.95556 -4.16e-4,0 -4.16e-4,0 -0.0012,0 l -3.427638,0 c -0.424704,0 -0.831902,0.16838 -1.131571,0.46888 l -10.285907,10.28409 c -0.624761,0.62475 -0.624761,1.63837 0,2.26314 0.625177,0.62559 1.638797,0.62517 2.263558,0 l 9.816948,-9.81654 2.102262,0 9.816948,9.81654 c 0.625177,0.62517 1.638797,0.62517 2.263557,0 0.624762,-0.62477 0.624762,-1.63797 0,-2.26314 l -8.116882,-8.11647 c 1.369971,-0.4843 2.626161,-1.27203 3.68396,-2.32983 l 8.444059,-8.44406 7.439608,7.43961 c 0.624761,0.62518 1.638381,0.62476 2.263141,0 0.625177,-0.62518 0.625177,-1.63838 0,-2.26356 z m -25.44721,-31.20593 1.481254,1.48084 -2.879566,2.8795705 -2.441108,-2.4411105 z M 12.898223,9.7526355 c -0.0021,0.002 -0.0042,0.004 -0.0063,0.006 -0.553908,0.5493195 -1.454579,0.5576495 -2.016405,-0.004 l -0.858577,-0.85899 c -0.5580741,-0.55807 -0.5589078,-1.46166 -4.16e-4,-2.02058 4.16e-4,-4.1e-4 8.33e-4,-8.3e-4 0.0013,-8.3e-4 0,-4.2e-4 4.17e-4,-8.4e-4 8.34e-4,-8.4e-4 0.558075,-0.55807 1.461664,-0.5589 2.020155,-4.1e-4 l 0.85941,0.85899 c 0.558076,0.55807 0.558492,1.46208 0,2.02058 z m 4.285381,-4.28539 c -4.16e-4,4.2e-4 -0.0012,0.001 -0.0017,0.002 -0.558075,0.55808 -1.461664,0.55892 -2.020572,0 l -2.57323,-2.57323 c -0.556824,-0.55683 -0.557657,-1.45582 -0.0067,-2.01390001 0.0029,-0.002 0.0058,-0.005 0.0088,-0.008 0.557658,-0.55807 1.461248,-0.55849 2.020156,0 l 2.573229,2.57323001 c 0.558074,0.55808 0.558908,1.46167 0,2.02057 z m 4.285798,-4.28579 c -4.17e-4,4.2e-4 -4.17e-4,4.2e-4 -8.34e-4,8.4e-4 -4.16e-4,4.1e-4 -8.33e-4,8.3e-4 -0.0013,8.3e-4 -0.556825,0.55724 -1.463332,0.55724 -2.020156,0 l -4.287881,-4.28747 c -0.558075,-0.55808 -0.558492,-1.46166 0,-2.02016 8.33e-4,-8.3e-4 0.0013,-0.001 0.0021,-0.002 0.556408,-0.5564 1.461663,-0.55682 2.018905,-10e-4 l 4.289132,4.28871999 0,4.1e-4 c 0.55724,0.55724 0.556824,1.46333 0,2.02016001 z m 4.285798,-4.2858 c -4.17e-4,4.2e-4 -8.34e-4,8.3e-4 -0.0013,10e-4 -4.16e-4,0 -4.16e-4,4.2e-4 -8.33e-4,8.4e-4 -0.558075,0.55807 -1.461665,0.55848 -2.020573,0 l -5.144374,-5.14479 c -0.558492,-0.55808 -0.557241,-1.45876 -0.0042,-2.0164105 0.0021,-0.002 0.0042,-0.004 0.0063,-0.006 0.557657,-0.55808 1.461247,-0.55891 2.020155,0 l 5.144375,5.1443805 c 0.558491,0.55808 0.558908,1.46207 4.17e-4,2.02057 z m 0,0"
     id="path5441"
     inkscape:connector-curvature="0"
     style="fill:#f4623a;fill-opacity:1" />
</svg>
