<?xml version="1.0" encoding="UTF-8" standalone="no"?>
<!-- Created with Inkscape (http://www.inkscape.org/) -->

<svg
   xmlns:dc="http://purl.org/dc/elements/1.1/"
   xmlns:cc="http://creativecommons.org/ns#"
   xmlns:rdf="http://www.w3.org/1999/02/22-rdf-syntax-ns#"
   xmlns:svg="http://www.w3.org/2000/svg"
   xmlns="http://www.w3.org/2000/svg"
   xmlns:sodipodi="http://sodipodi.sourceforge.net/DTD/sodipodi-0.dtd"
   xmlns:inkscape="http://www.inkscape.org/namespaces/inkscape"
   width="68.264"
   height="64"
   viewBox="0 0 68.264001 64.000001"
   id="svg6011"
   version="1.1"
   inkscape:version="0.91 r13725"
   sodipodi:docname="4.svg">
  <defs
     id="defs6013" />
  <sodipodi:namedview
     id="base"
     pagecolor="#ffffff"
     bordercolor="#666666"
     borderopacity="1.0"
     inkscape:pageopacity="0.0"
     inkscape:pageshadow="2"
     inkscape:zoom="3.959798"
     inkscape:cx="9.93496"
     inkscape:cy="37.077706"
     inkscape:document-units="px"
     inkscape:current-layer="layer1"
     showgrid="false"
     units="px"
     inkscape:window-width="1366"
     inkscape:window-height="701"
     inkscape:window-x="-8"
     inkscape:window-y="-8"
     inkscape:window-maximized="1" />
  <metadata
     id="metadata6016">
    <rdf:RDF>
      <cc:Work
         rdf:about="">
        <dc:format>image/svg+xml</dc:format>
        <dc:type
           rdf:resource="http://purl.org/dc/dcmitype/StillImage" />
        <dc:title></dc:title>
      </cc:Work>
    </rdf:RDF>
  </metadata>
  <g
     inkscape:label="Layer 1"
     inkscape:groupmode="layer"
     id="layer1"
     transform="translate(0,-988.36218)">
    <g
       id="g3911"
       transform="matrix(0.13332876,0,0,0.13332876,-1.6259052e-4,986.22999)"
       style="fill:#f4623a;fill-opacity:1">
      <g
         id="g3913"
         style="fill:#f4623a;fill-opacity:1">
        <path
           id="path3915"
           d="m 467,255.992 -63.185,0 -47.566,-95.132 c -7.61,-15.207 -23.326,-24.867 -40.289,-24.869 9.438,-12.543 15.04,-28.128 15.04,-44.999 0,-41.355 -33.645,-75 -75,-75 -41.355,0 -75,33.645 -75,75 0,16.87 5.602,32.455 15.04,44.998 -16.929,-0.015 -32.662,9.66 -40.292,24.876 l -47.563,95.126 -63.185,0 c -24.813,0 -45,20.187 -45,45 0,24.813 20.187,44.8 45,44.8 l 18.582,0 c -8.142,23.012 3.651,48.709 26.619,57.341 l 43.668,16.375 c -11.826,12.113 -16.329,30.428 -10.006,47.294 8.399,22.344 33.759,35.307 57.936,26.331 L 256,465.308 l 74.246,27.843 c 24.013,8.914 49.451,-3.897 57.896,-26.36 6.319,-16.856 1.816,-35.167 -10.012,-47.281 l 43.68,-16.38 c 22.954,-8.627 34.746,-34.116 26.607,-57.137 l 18.583,0 c 24.813,0 45,-20.187 45,-45 0,-24.813 -20.187,-45.001 -45,-45.001 z m -211,-210 c 24.813,0 45,20.187 45,45 0,24.813 -20.187,45 -45,45 -24.813,0 -45,-20.187 -45,-45 0,-24.813 20.187,-45 45,-45 z M 100.745,375.047 c -7.752,-2.913 -11.697,-11.581 -8.8,-19.31 2.902,-7.724 11.59,-11.661 19.32,-8.795 l 102.015,38.255 -42.734,16.025 -69.801,-26.175 z m 64.56,-39.881 c 4.453,-3.831 8.203,-8.559 10.947,-14.048 l 4.748,-9.495 0,29.429 -15.695,-5.886 z m 194.75,121.081 c -2.794,7.432 -11.211,11.806 -19.32,8.796 l -42.015,-15.755 42.734,-16.025 9.801,3.675 c 7.752,2.913 11.697,11.581 8.8,19.309 z m 51.211,-81.204 -239.955,89.983 c -8.228,3.055 -16.595,-1.409 -19.36,-8.767 -2.902,-7.74 1.043,-16.408 8.784,-19.317 l 239.949,-89.981 c 7.77,-2.883 16.467,1.047 19.366,8.765 2.902,7.74 -1.043,16.408 -8.784,19.317 z M 331,341.052 l 0,-29.429 4.748,9.495 c 2.744,5.489 6.494,10.217 10.947,14.048 L 331,341.052 Z m 136,-25.06 -91,0 c -5.721,0 -10.862,-3.177 -13.42,-8.29 l -33.164,-66.328 c -3.11,-6.223 -10.092,-9.488 -16.862,-7.891 -6.771,1.598 -11.554,7.642 -11.554,14.599 l 0,104.22 -45,16.875 -45,-16.875 0,-104.22 c 0,-6.957 -4.783,-13 -11.554,-14.599 -6.766,-1.599 -13.751,1.668 -16.862,7.891 l -33.164,66.328 c -2.558,5.113 -7.699,8.29 -13.42,8.29 l -91,0 c -8.271,0 -15,-6.729 -15,-15 0,-8.271 6.729,-15 15,-15 l 72.455,0 c 5.682,0 10.876,-3.21 13.416,-8.292 l 51.701,-103.402 c 2.492,-4.97 7.569,-8.172 13.074,-8.31 0.117,0.002 0.235,0.004 0.354,0.004 l 120,0 c 0.117,0 0.234,-10e-4 0.351,-0.004 5.512,0.137 10.587,3.335 13.069,8.294 L 381.129,277.7 c 2.54,5.082 7.734,8.292 13.416,8.292 l 72.455,0 c 8.271,0 15,6.729 15,15 0,8.271 -6.729,15 -15,15 z"
           inkscape:connector-curvature="0"
           style="fill:#f4623a;fill-opacity:1" />
      </g>
    </g>
  </g>
</svg>
